<svg xmlns="http://www.w3.org/2000/svg" xmlns:xlink="http://www.w3.org/1999/xlink" xml:space="preserve" viewBox="0 0 512 512"><script xmlns=""/><symbol id="b" viewBox="-32 -32 64 64"><linearGradient id="a" x1="7762.648" x2="7762.648" y1="-8454.313" y2="-8453.313" gradientTransform="matrix(63.931 0 0 64 -496273.844 541044)" gradientUnits="userSpaceOnUse"><stop offset="0" style="stop-color:#111d2e"/><stop offset=".212" style="stop-color:#051839"/><stop offset=".407" style="stop-color:#0a1b48"/><stop offset=".581" style="stop-color:#132e62"/><stop offset=".738" style="stop-color:#144b7e"/><stop offset=".873" style="stop-color:#136497"/><stop offset="1" style="stop-color:#1387b8"/></linearGradient><path d="M-30.7 9.2C-26.7 22.4-14.5 32 0 32c17.7 0 32-14.3 32-32S17.7-32 0-32c-17 0-30.9 13.2-32 29.9 2.1 3.5 2.9 5.6 1.3 11.3" style="fill:url(#a)"/><path d="M-1.7-8v.2L-9.5 3.5c-1.3-.1-2.5.2-3.7.7-.5.2-1 .5-1.5.8l-17.2-7.1s-.4 6.5 1.3 11.4l12.2 5c.6 2.7 2.5 5.1 5.2 6.3 4.5 1.9 9.7-.3 11.6-4.8.5-1.2.7-2.4.7-3.7l11.2-8h.3c6.7 0 12.2-5.5 12.2-12.2s-5.4-12.2-12.2-12.2C3.8-20.2-1.7-14.7-1.7-8m-1.8 23c-1.5 3.5-5.5 5.1-9 3.7-1.5-.7-2.8-1.8-3.5-3.4l4 1.6c2.6 1.1 5.5-.1 6.6-2.7s-.1-5.5-2.7-6.6L-12.3 6c1.6-.6 3.4-.6 5 .1 1.7.7 3 2 3.7 3.7s.7 3.5.1 5.2M10.5.1C6 .1 2.4-3.5 2.4-8s3.6-8.1 8.1-8.1 8.1 3.6 8.1 8.1S15 .1 10.5.1M4.4-8c0-3.4 2.7-6.1 6.1-6.1s6.1 2.7 6.1 6.1-2.7 6.1-6.1 6.1S4.4-4.7 4.4-8" style="fill:#fff"/></symbol><use xlink:href="#b" width="64" height="64" x="-32" y="-32" style="overflow:visible" transform="matrix(8 0 0 8 256 256)"/></svg>