<svg xmlns="http://www.w3.org/2000/svg" viewBox="0 0 451.94942 416.224"><defs><style>.cls-1{fill:#fff;stroke:#000;stroke-miterlimit:10;}</style></defs><title>Element 10</title><g id="Ebene_2" data-name="Ebene 2"><g id="Ebene_2-2" data-name="Ebene 2"><polygon class="cls-1" points="235.449 61.139 235.449 85.889 257.449 54.979 235.449 61.139"/><polygon class="cls-1" points="451.449 0.659 325.449 35.939 254.574 118.784 451.449 63.659 451.449 0.659"/><polygon class="cls-1" points="235.449 349.139 307.449 328.979 307.449 184.979 451.449 144.659 451.449 90.659 235.449 151.139 235.449 349.139"/><polygon class="cls-1" points="73.449 178.499 193.449 144.899 217.449 111.179 217.449 66.179 1.449 126.659 1.449 414.659 73.449 313.499 73.449 178.499"/><polygon class="cls-1" points="145.449 246.339 145.449 302.339 82.449 319.979 1.449 414.659 217.449 354.179 217.449 210.179 163.449 225.299 145.449 246.339"/></g></g></svg>