<svg xmlns="http://www.w3.org/2000/svg" xmlns:xlink="http://www.w3.org/1999/xlink" viewBox="0 0 2560 512"><defs><linearGradient id="a" x1="1095.22" y1="144.69" x2="1467.17" y2="144.69" gradientUnits="userSpaceOnUse"><stop offset="0" stop-color="#2332c8"/><stop offset="1" stop-color="#6441a5"/></linearGradient><linearGradient id="b" x1="1095.22" y1="135.98" x2="1467.17" y2="135.98" xlink:href="#a"/><linearGradient id="c" x1="1095.22" y1="266.11" x2="1467.17" y2="266.11" xlink:href="#a"/><linearGradient id="d" x1="1095.22" y1="282.78" x2="1467.17" y2="282.78" xlink:href="#a"/><linearGradient id="e" x1="1095.22" y1="341.28" x2="1467.17" y2="341.28" xlink:href="#a"/></defs><title>Banner</title><rect width="2560" height="512" rx="50" style="fill:#fff"/><polygon points="1287.53 137.13 1287.53 157.24 1305.4 132.13 1287.53 137.13" style="fill:url(#a)"/><polygon points="1463.01 88 1360.64 116.66 1303.07 183.97 1463.01 139.18 1463.01 88" style="fill:url(#b)"/><polygon points="1287.53 371.11 1346.02 354.73 1346.02 237.74 1463.01 204.99 1463.01 161.12 1287.53 210.25 1287.53 371.11" style="fill:url(#c)"/><polygon points="1155.92 232.48 1253.41 205.18 1272.9 177.79 1272.9 141.23 1097.42 190.36 1097.42 424.34 1155.92 342.15 1155.92 232.48" style="fill:url(#d)"/><polygon points="1214.41 287.59 1214.41 333.09 1163.23 347.42 1097.42 424.34 1272.9 375.2 1272.9 258.22 1229.04 270.5 1214.41 287.59" style="fill:url(#e)"/></svg>